#!OML:ASF F:\VICON\USERDATA\INSTALL\Justin_Nancy\Justin_Nancy.ASF
:FULLY-SPECIFIED
:DEGREES
96
root 0.808553 17.503 -15.5396 -0.603813 -3.99616 1.40036
lowerback 5.1808 1.88926 -1.10339
upperback 0.606574 2.47221 0.754807
thorax -2.3584 1.2455 1.21677
lowerneck -15.3443 -3.96821 -9.82193
upperneck 22.5112 -4.50183 6.0107
head 10.0683 -2.24182 3.16797
rclavicle 6.60959e-015 -3.97569e-015
rhumerus -25.807 -13.144 -80.223
rradius 33.3543
rwrist 6.46053
rhand -16.5138 8.81482
rfingers 7.12502
rthumb 9.70447 -20.9416
lclavicle 6.60959e-015 -3.97569e-015
lhumerus -34.8866 17.5121 81.7085
lradius 18.5848
lwrist -17.0201
lhand -10.8338 27.9647
lfingers 7.12502
lthumb 15.1806 57.3878
rfemur -0.84801 2.95987 20.9325
rtibia 51.8699
rfoot 11.51 3.05566
rtoes -6.34396
lfemur -20.3226 0.833524 -24.8813
ltibia 24.2906
lfoot -1.55711 1.41568
ltoes 7.98492
97
root 0.823477 17.5282 -15.3892 -0.745639 -4.04609 1.95388
lowerback 5.21161 1.86985 -1.55605
upperback 0.786249 2.41645 0.592745
thorax -2.20071 1.2188 1.31027
lowerneck -15.7334 -3.92808 -9.74752
upperneck 22.5648 -4.38445 5.84416
head 10.1455 -2.19442 3.1093
rclavicle -7.85199e-015 7.95139e-016
rhumerus -25.8231 -13.5788 -80.2631
rradius 32.7828
rwrist 7.36309
rhand -17.2437 10.2793
rfingers 7.12502
rthumb 9.00023 -19.5087
lclavicle -7.85199e-015 7.95139e-016
lhumerus -34.1784 16.918 82.1749
lradius 18.6136
lwrist -16.7211
lhand -11.1826 27.4783
lfingers 7.12502
lthumb 14.8445 56.9266
rfemur -2.47606 2.7852 19.9983
rtibia 54.5239
rfoot 14.2842 3.50096
rtoes -3.00998
lfemur -19.3585 0.914908 -25.5996
ltibia 23.7845
lfoot -1.68892 1.32352
ltoes 7.14671
98
root 0.834427 17.5495 -15.2419 -0.921885 -4.16206 2.36772
lowerback 5.28241 1.888 -1.96105
upperback 0.898889 2.41474 0.498356
thorax -2.13691 1.21924 1.43993
lowerneck -15.8651 -3.8659 -9.70544
upperneck 22.6414 -4.26283 5.71022
head 10.1836 -2.14882 3.07115
rclavicle -1.33683e-014 3.57812e-015
rhumerus -25.9562 -13.8052 -80.291
rradius 32.4199
rwrist 7.67792
rhand -17.5632 9.86429
rfingers 7.12502
rthumb 8.6919 -19.9368
lclavicle -1.33683e-014 3.57812e-015
lhumerus -33.6526 16.2116 82.5991
lradius 18.6853
lwrist -16.3492
lhand -11.3674 27.1393
lfingers 7.12502
lthumb 14.6665 56.6006
rfemur -4.08401 2.65192 19.2703
rtibia 57.0405
rfoot 16.5703 3.69408
rtoes -1.60138
lfemur -18.3579 0.921419 -26.111
ltibia 23.309
lfoot -1.92994 1.33538
ltoes 5.99714
99
root 0.845709 17.565 -15.0915 -1.06277 -4.17337 2.6383
lowerback 5.29532 1.83185 -2.19416
upperback 1.00345 2.32626 0.456321
thorax -2.04039 1.17471 1.53538
lowerneck -15.9211 -3.81098 -9.69588
upperneck 22.5771 -4.13753 5.54419
head 10.1568 -2.10775 3.02593
rclavicle -2.14936e-014 1.19271e-014
rhumerus -26.0913 -13.8068 -80.3545
rradius 32.064
rwrist 7.82274
rhand -17.5101 9.47796
rfingers 7.12502
rthumb 8.74309 -20.321
lclavicle -2.14936e-014 1.19271e-014
lhumerus -33.3655 15.2878 83.1179
lradius 19.1462
lwrist -15.8305
lhand -11.4811 27.2829
lfingers 7.12502
lthumb 14.557 56.7521
rfemur -5.64383 2.45006 18.7312
rtibia 59.3796
rfoot 18.5025 3.41669
rtoes -0.263533
lfemur -17.4283 0.897919 -26.4883
ltibia 22.9298
lfoot -2.42312 1.43885
ltoes 5.44154
100
root 0.85403 17.5792 -14.9422 -1.2767 -4.07506 2.83457
lowerback 5.43389 1.72059 -2.37687
upperback 1.11621 2.165 0.446467
thorax -2.00094 1.0938 1.63729
lowerneck -15.9403 -3.71605 -9.68176
upperneck 22.4447 -3.96262 5.39179
head 10.0946 -2.04152 2.99116
rclavicle -1.0312e-014 -3.18055e-015
rhumerus -26.3061 -13.613 -80.4406
rradius 31.6926
rwrist 8.10334
rhand -17.8231 9.55907
rfingers 7.12502
rthumb 8.44103 -20.2522
lclavicle -1.0312e-014 -3.18055e-015
lhumerus -33.0204 14.0949 83.7259
lradius 19.6589
lwrist -15.1856
lhand -11.3433 27.8619
lfingers 7.12502
lthumb 14.6898 57.3215
rfemur -7.0043 2.1912 18.3189
rtibia 61.5319
rfoot 20.1174 2.98657
rtoes 2.68306
lfemur -16.4901 0.975562 -26.7967
ltibia 22.6695
lfoot -2.91998 1.44857
ltoes 5.86246
101
root 0.861071 17.5942 -14.7988 -1.54173 -4.01305 2.90908
lowerback 5.69234 1.62203 -2.51246
upperback 1.20054 2.02121 0.512353
thorax -2.05864 1.0227 1.78597
lowerneck -15.8696 -3.60441 -9.7511
upperneck 22.4228 -3.76657 5.28582
head 10.0565 -1.96992 2.99219
rclavicle 2.04748e-014 1.59028e-015
rhumerus -26.512 -13.4508 -80.4456
rradius 31.1518
rwrist 8.59479
rhand -18.0406 10.0169
rfingers 7.12502
rthumb 8.23117 -19.8028
lclavicle 2.04748e-014 1.59028e-015
lhumerus -32.6834 12.9583 84.2966
lradius 20.091
lwrist -14.5883
lhand -11.218 28.3477
lfingers 7.12502
lthumb 14.8105 57.7984
rfemur -8.22841 1.92819 18.0843
rtibia 63.4628
rfoot 21.2747 2.3371
rtoes 5.43136
lfemur -15.6125 1.03169 -26.9661
ltibia 22.5251
lfoot -3.24843 1.43971
ltoes 5.26366
102
root 0.873333 17.6038 -14.6511 -1.66244 -4.04651 2.90934
lowerback 5.70269 1.56751 -2.53468
upperback 1.28566 1.94976 0.602704
thorax -1.97702 0.985482 1.89808
lowerneck -15.9005 -3.5227 -9.85176
upperneck 22.4686 -3.59664 5.1846
head 10.0653 -1.91195 2.99664
rclavicle -2.73329e-014 2.78299e-015
rhumerus -26.4561 -13.4911 -80.3883
rradius 30.3161
rwrist 9.37786
rhand -17.9728 10.1705
rfingers 7.12502
rthumb 8.29656 -19.6465
lclavicle -2.73329e-014 2.78299e-015
lhumerus -32.2788 12.0778 84.7708
lradius 20.3818
lwrist -14.2362
lhand -11.0577 28.9769
lfingers 7.12502
lthumb 14.9649 58.4162
rfemur -9.56503 1.68413 17.9112
rtibia 65.2264
rfoot 21.1868 1.69713
rtoes 4.6016
lfemur -14.8452 0.899287 -27.0613
ltibia 22.3994
lfoot -3.5326 1.71648
ltoes 4.33178
103
root 0.884127 17.6131 -14.5012 -1.82391 -3.86171 2.92867
lowerback 5.7805 1.46934 -2.56767
upperback 1.35394 1.81676 0.656057
thorax -1.94584 0.918247 1.98084
lowerneck -16.0751 -3.45723 -9.78876
upperneck 22.6004 -3.46002 5.00219
head 10.1301 -1.86419 2.94036
rclavicle 2.76311e-014 1.98785e-015
rhumerus -26.4842 -13.7187 -80.3182
rradius 29.6589
rwrist 10.2575
rhand -17.8434 9.66512
rfingers 7.12502
rthumb 8.4215 -20.147
lclavicle 2.76311e-014 1.98785e-015
lhumerus -31.8052 11.2343 85.1413
lradius 20.534
lwrist -14.0755
lhand -11.1829 29.5926
lfingers 7.12502
lthumb 14.8442 59.0409
rfemur -10.7196 1.2441 17.716
rtibia 66.8177
rfoot 19.2582 1.16022
rtoes -0.302019
lfemur -13.9766 0.637512 -27.1759
ltibia 22.3709
lfoot -4.05112 1.91294
ltoes 4.57915
104
root 0.888677 17.62 -14.3573 -2.00498 -3.4881 3.19064
lowerback 5.89697 1.30786 -2.87845
upperback 1.30292 1.57899 0.639803
thorax -2.0582 0.803265 2.15381
lowerneck -15.481 -3.36545 -9.74241
upperneck 22.3823 -3.35951 4.83618
head 9.92766 -1.83693 2.88784
rclavicle 1.38652e-014 -5.1684e-015
rhumerus -26.7873 -13.8425 -80.213
rradius 29.1908
rwrist 10.7805
rhand -17.5494 9.23504
rfingers 7.12502
rthumb 8.70518 -20.5655
lclavicle 1.38652e-014 -5.1684e-015
lhumerus -31.663 10.6589 85.3083
lradius 20.8886
lwrist -14.2729
lhand -11.0907 29.797
lfingers 7.12502
lthumb 14.9331 59.2386
rfemur -11.8421 0.613909 17.2508
rtibia 68.2982
rfoot 18.7444 1.07452
rtoes 3.83565
lfemur -13.146 0.358586 -27.5317
ltibia 22.4293
lfoot -4.74122 1.96172
ltoes 5.69824
105
root 0.895132 17.6135 -14.2152 -2.15556 -3.12511 3.28466
lowerback 5.91501 1.11105 -2.96646
upperback 1.36114 1.31197 0.651238
thorax -1.99455 0.668925 2.2364
lowerneck -15.2172 -3.26332 -9.76588
upperneck 22.2938 -3.21609 4.75615
head 9.83391 -1.78349 2.88303
rclavicle -1.12562e-014 -1.19271e-015
rhumerus -26.8571 -13.9791 -80.1855
rradius 28.6102
rwrist 11.2776
rhand -17.3224 8.97461
rfingers 7.12502
rthumb 8.92421 -20.8167
lclavicle -1.12562e-014 -1.19271e-015
lhumerus -31.3379 10.3125 85.3949
lradius 21.3222
lwrist -14.6452
lhand -10.6826 30.1619
lfingers 7.12502
lthumb 15.3263 59.574
rfemur -12.9887 -0.0529683 16.9886
rtibia 69.6629
rfoot 17.3818 0.87376
rtoes 4.60928
lfemur -12.4919 0.274486 -27.7397
ltibia 22.4931
lfoot -5.36603 1.85283
ltoes 5.3212
106
root 0.901177 17.6134 -14.0759 -2.13145 -2.74056 3.35305
lowerback 5.99418 0.930984 -3.06652
upperback 1.31637 1.06425 0.697311
thorax -2.07227 0.54775 2.35813
lowerneck -15.3904 -3.18265 -9.87667
upperneck 22.4844 -3.0562 4.74397
head 9.92374 -1.72158 2.92028
rclavicle 1.19768e-014 9.54166e-015
rhumerus -27.0622 -14.1527 -80.058
rradius 28.0753
rwrist 11.9522
rhand -17.3781 9.06824
rfingers 7.12502
rthumb 8.87051 -20.7253
lclavicle 1.19768e-014 9.54166e-015
lhumerus -30.9584 10.139 85.4532
lradius 21.5371
lwrist -15.0905
lhand -10.816 28.9937
lfingers 7.12502
lthumb 15.1978 58.4156
rfemur -14.2826 -0.708393 16.7711
rtibia 70.8827
rfoot 15.5814 0.558794
rtoes 3.81398
lfemur -12.1333 0.166734 -27.9365
ltibia 22.5693
lfoot -5.78732 1.73546
ltoes 4.63638
107
root 0.906318 17.6181 -13.9345 -2.18732 -2.47055 3.38801
lowerback 6.06504 0.773555 -3.17861
upperback 1.3204 0.847726 0.794129
thorax -2.09675 0.440915 2.53765
lowerneck -15.5339 -3.13445 -9.95598
upperneck 22.67 -2.93265 4.65223
head 10.008 -1.68352 2.91932
rclavicle 2.26118e-015 -1.03368e-014
rhumerus -27.3575 -14.53 -79.8368
rradius 27.7474
rwrist 12.6841
rhand -17.3657 9.71212
rfingers 7.12502
rthumb 8.88244 -20.0809
lclavicle 2.26118e-015 -1.03368e-014
lhumerus -30.5624 10.0427 85.5645
lradius 21.7453
lwrist -15.3369
lhand -11.3929 27.4377
lfingers 7.12502
lthumb 14.642 56.9008
rfemur -15.5319 -1.32628 16.6125
rtibia 71.9196
rfoot 14.0926 0.221519
rtoes 3.08491
lfemur -11.6363 0.033085 -28.0672
ltibia 22.7565
lfoot -6.22599 1.79942
ltoes 4.25583
108
root 0.913385 17.6088 -13.7943 -2.39469 -2.18654 3.58394
lowerback 6.07297 0.624527 -3.35847
upperback 1.49803 0.639649 0.785096
thorax -1.9055 0.332126 2.64679
lowerneck -15.5422 -3.11199 -9.85835
upperneck 22.5704 -2.87828 4.46925
head 9.96568 -1.66901 2.84346
rclavicle 4.24902e-015 0
rhumerus -27.4468 -15.06 -79.7393
rradius 27.5511
rwrist 13.3515
rhand -17.3892 9.75923
rfingers 7.12502
rthumb 8.85974 -20.0348
lclavicle 4.24902e-015 0
lhumerus -30.1079 9.65293 85.6949
lradius 22.2542
lwrist -15.257
lhand -11.7753 26.8413
lfingers 7.12502
lthumb 14.2736 56.3308
rfemur -16.6125 -1.92253 16.2874
rtibia 72.8445
rfoot 12.7814 -0.189138
rtoes 2.4683
lfemur -10.9714 -0.159231 -28.3782
ltibia 22.952
lfoot -6.66544 1.93239
ltoes 4.00228
109
root 0.917803 17.5927 -13.6635 -2.48179 -1.70944 3.75375
lowerback 6.23887 0.455997 -3.58116
upperback 1.42799 0.395128 0.812889
thorax -2.05435 0.214964 2.81932
lowerneck -15.1832 -3.04816 -9.75892
upperneck 22.4335 -2.78654 4.20985
head 9.83729 -1.64872 2.74688
rclavicle -6.21202e-016 1.59028e-014
rhumerus -27.9496 -15.4941 -79.4445
rradius 27.4492
rwrist 13.7299
rhand -17.3487 9.67521
rfingers 7.12502
rthumb 8.89884 -20.1171
lclavicle -6.21202e-016 1.59028e-014
lhumerus -29.9724 9.24294 85.8007
lradius 22.7387
lwrist -15.257
lhand -12.039 26.926
lfingers 7.12502
lthumb 14.0194 56.4332
rfemur -17.7501 -2.63975 16.0173
rtibia 73.6182
rfoot 11.3985 -0.630063
rtoes 2.86316
lfemur -10.5371 -0.286326 -28.6527
ltibia 23.2049
lfoot -7.15618 1.74645
ltoes 4.44051
110
root 0.917493 17.5774 -13.5344 -2.56779 -1.30267 3.98174
lowerback 6.51602 0.344073 -3.92095
upperback 1.38178 0.212922 0.838737
thorax -2.24388 0.130536 3.05225
lowerneck -15.2543 -2.98476 -9.71577
upperneck 22.5603 -2.66672 4.0655
head 9.88447 -1.6076 2.7056
rclavicle -8.19987e-016 -4.77083e-015
rhumerus -28.447 -16.0729 -79.0836
rradius 27.4086
rwrist 13.9681
rhand -17.3395 9.7434
rfingers 7.12502
rthumb 8.90773 -20.0486
lclavicle -8.19987e-016 -4.77083e-015
lhumerus -29.4417 9.12349 85.8816
lradius 22.8174
lwrist -15.3947
lhand -11.8574 27.9456
lfingers 7.12502
lthumb 14.1944 57.4407
rfemur -18.8632 -3.19128 15.7157
rtibia 74.2374
rfoot 9.96516 -1.02564
rtoes 3.37467
lfemur -10.1545 -0.23316 -28.96
ltibia 23.6107
lfoot -7.75714 1.46369
ltoes 4.6248
